<svg height="512pt" viewBox="0 0 512 512.09778" width="512pt" xmlns="http://www.w3.org/2000/svg">
    <path d="m136.582031 332.898438h-117.988281c-2.699219.011718-5.246094-1.253907-6.863281-3.414063-1.621094-2.160156-2.121094-4.957031-1.355469-7.542969 4.695312-13.859375 17.707031-23.183594 32.339844-23.175781h59.734375c1.945312-.003906 3.886719.167969 5.800781.511719"
          fill="#37474f"/>
    <path d="m158.34375 359.179688c-6.121094 5.070312-13.816406 7.847656-21.761719 7.851562h-59.734375c-18.851562 0-34.132812-15.28125-34.132812-34.132812h128"
          fill="#607d87"/>
    <path d="m406.746094 125.195312c-12.136719 18.34375-16.890625 40.59375-13.308594 62.292969 4.429688 15.570313 10.253906 30.707031 17.40625 45.226563 8.664062 21.777344 10.1875 45.742187 4.351562 68.4375-6.484374 22.957031-27.222656 41.132812-47.019531 52.992187-30.890625 18.519531-73.554687 21.417969-120.660156 21.417969-2.046875 0-4.179687-.082031-6.398437-.167969h-.429688c-51.234375-4.40625-101.105469-18.84375-146.773438-42.496093l179.203126-170.667969c25.769531-15.53125 16.382812-59.050781 17.066406-85.332031-.019532-33 23.589844-61.28125 56.0625-67.15625 4.023437-.761719 8.109375-1.132813 12.203125-1.109376 31.136719 0 58.332031 21.054688 66.132812 51.199219v34.132813c-1.761719 6.648437-4.492187 13.003906-8.105469 18.859375-3.539062 3.777343-6.734374 7.863281-9.558593 12.203125zm0 0"
          fill="#607d87"/>
    <path d="m382.511719 125.195312c-12.136719 18.34375-16.894531 40.59375-13.3125 62.292969 4.433593 15.570313 10.257812 30.707031 17.410156 45.226563 8.664063 21.777344 10.1875 45.742187 4.351563 68.4375-6.484376 22.957031-27.222657 41.132812-47.019532 52.992187-26.964844 16.128907-62.804687 20.394531-102.824218 21.25h-.429688c-51.234375-4.40625-101.105469-18.84375-146.773438-42.496093l179.203126-170.667969c25.769531-15.53125 16.382812-59.050781 17.066406-85.332031-.019532-33 23.589844-61.28125 56.0625-67.15625 26.28125 4.667968 47.425781 24.242187 54.101562 50.089843v34.132813c-1.761718 6.648437-4.492187 13.003906-8.105468 18.859375-3.539063 3.777343-6.734376 7.863281-9.558594 12.203125zm0 0"
          fill="#cbd4d8"/>
    <path d="m493.53125 93.964844h-68.949219v-34.132813h44.800781c14.621094-.015625 27.625 9.285157 32.339844 23.125.785156 2.589844.296875 5.398438-1.320312 7.570313-1.617188 2.167968-4.164063 3.445312-6.871094 3.4375zm0 0"
          fill="#fabd08"/>
    <path d="m358.449219 247.5625c0 47.128906-38.207031 85.335938-85.332031 85.335938h-176.640626c-3.390624-.011719-6.449218-2.027344-7.800781-5.132813-1.347656-3.109375-.734375-6.71875 1.570313-9.203125l122.539062-131.328125c13.015625-13.066406 29.949219-21.515625 48.214844-24.066406 4.003906-.65625 8.058594-.96875 12.117188-.9375 47.125 0 85.332031 38.207031 85.332031 85.332031zm0 0"
          fill="#607d87"/>
    <path d="m469.296875 93.964844h-44.714844v-34.132813h20.566407c14.621093-.015625 27.625 9.285157 32.339843 23.125.816407 2.589844.339844 5.417969-1.28125 7.597657-1.625 2.179687-4.191406 3.449218-6.910156 3.410156zm0 0"
          fill="#fabd08"/>
    <path d="m334.214844 247.5625c0 47.128906-38.207032 85.335938-85.332032 85.335938h-152.40625c-3.390624-.011719-6.449218-2.027344-7.800781-5.132813-1.347656-3.109375-.734375-6.71875 1.570313-9.203125l122.539062-131.328125c13.015625-13.066406 29.949219-21.515625 48.214844-24.066406 42.015625 5.976562 73.230469 41.957031 73.214844 84.394531zm0 0"
          fill="#cbd4d8"/>
    <path d="m298.714844 469.429688c24.285156-1.308594 47.792968 8.765624 63.601562 27.25 1.003906 1.289062 1.179688 3.046874.453125 4.511718-.726562 1.46875-2.230469 2.390625-3.867187 2.371094l-68.71875.003906"
          fill="#fabd08"/>
    <path d="m254.980469 469.429688c24.285156-1.308594 47.796875 8.765624 63.601562 27.25 1.003907 1.289062 1.183594 3.046874.453125 4.511718-.726562 1.46875-2.230468 2.390625-3.867187 2.371094l-68.71875.003906"
          fill="#fabd08"/>
    <path d="m313.476562 172.386719c-9.582031 27.769531-25.503906 52.925781-46.503906 73.472656-48.128906 48.125-110.933594 65.535156-150.445312 44.542969l96.257812-103.167969c26.617188-26.617187 67.527344-32.648437 100.691406-14.847656zm0 0"
          fill="#37474f"/>
    <path d="m384.050781 59.832031c0 9.425781-7.644531 17.066407-17.070312 17.066407s-17.066407-7.640626-17.066407-17.066407 7.640626-17.066406 17.066407-17.066406 17.070312 7.640625 17.070312 17.066406zm0 0"
          fill="#fff"/>
    <path d="m366.980469 51.296875c-.015625 4.007813-2.820313 7.464844-6.742188 8.304687-3.917969.839844-7.894531-1.15625-9.554687-4.804687 1.695312-5.367187 5.898437-9.570313 11.265625-11.265625 3.054687 1.375 5.027343 4.414062 5.03125 7.765625zm0 0"
          fill="#fff"/>
    <path d="m469.382812 51.296875h-38.496093c-12.417969-35.265625-48.425781-56.460937-85.289063-50.207031-36.859375 6.253906-63.859375 38.148437-63.949218 75.535156v.273438c-.136719 5.894531.1875 12.363281.53125 19.226562 1.109374 22.363281 2.226562 47.484375-12.179688 57.71875-23.800781.675781-46.4375 10.449219-63.257812 27.304688l-.210938.214843-101.734375 109.074219c-.792969-.042969-1.554687-.207031-2.347656-.207031h-59.734375c-23.550782.027343-42.636719 19.113281-42.6640628 42.667969 0 4.710937 3.8203128 8.53125 8.5312498 8.53125h26.453125c4.082032 19.851562 21.546875 34.109374 41.8125 34.132812h59.734375c8.242188-.054688 16.292969-2.496094 23.175781-7.03125 25.765626 8.007812 52.332032 13.140625 79.222657 15.308594v119.722656c0 4.714844 3.820312 8.535156 8.535156 8.535156h119.464844c2.96875.015625 5.726562-1.507812 7.292969-4.027344 1.566406-2.515624 1.714843-5.667968.390624-8.320312-.855468-1.585938-20.113281-38.851562-75.949218-38.851562v-78.773438c25.855468-1.238281 51.097656-8.300781 73.839844-20.65625 15.496093-9.285156 42.667968-29.160156 50.859374-58.027344 6.3125-24.484375 4.691407-50.34375-4.625-73.847656-1.972656-5.0625-4.214843-10-6.460937-14.941406-4.613281-9.167969-8.144531-18.835938-10.519531-28.816406-3.132813-19.371094 1.105468-39.210938 11.875-55.613282 3.507812-3.671875 6.652344-7.671875 9.386718-11.945312.351563-.394532.734376-.785156 1.128907-1.179688 1.367187-1.402344 2.203125-3.242187 2.355469-5.195312 1.5625-3.042969 2.929687-6.183594 4.085937-9.40625h72.875c4.710937 0 8.535156-3.820313 8.535156-8.53125.007813-11.320313-4.480469-22.179688-12.484375-30.183594s-18.863281-12.496094-30.183594-12.484375zm-250.480468 141.859375c22.074218-21.953125 55.207031-28.4375 83.925781-16.417969-9.398437 23.742188-23.667969 45.253907-41.890625 63.144531-40.457031 40.457032-92.875 58.992188-129.757812 47.351563zm-48.1875 131.207031h-74.238282l22.117188-23.703125c11.484375 4.839844 23.835938 7.289063 36.300781 7.199219 38.179688 0 82.089844-19.957031 118.101563-55.96875 19.292968-18.960937 34.558594-41.617187 44.886718-66.621094 3.390626 2.414063 6.582032 5.097657 9.539063 8.023438 21.941406 21.96875 28.496094 54.984375 16.613281 83.667969-11.886718 28.683593-39.871094 47.390624-70.917968 47.402343zm-128-17.066406h46.34375l-15.921875 17.066406h-54.5625c3.628906-10.21875 13.296875-17.050781 24.140625-17.066406zm34.132812 51.199219c-10.84375-.011719-20.511718-6.84375-24.140625-17.066406h38.988281c12.15625 6.675781 24.816407 12.382812 37.863282 17.066406zm213.335938 136.535156h-34.132813v-17.066406c10.480469-.136719 20.898438 1.675781 30.71875 5.339844.074219 0 .152344.050781.230469.078124 7.101562 2.707032 13.667969 6.648438 19.394531 11.648438zm38.867187 0c-4.210937-6-9.304687-11.328125-15.101562-15.8125 12.972656 1.816406 25.152343 7.304688 35.113281 15.8125zm-47.402343-31.136719c-8.382813-2.023437-16.976563-3.03125-25.597657-2.996093v-76.894532c8.839844-.078125 17.40625-.28125 25.597657-.683594zm121.234374-228.089843c8 20.046874 9.4375 42.113281 4.105469 63.027343-6.546875 23.167969-29.867187 40.011719-43.199219 47.992188-27.96875 16.792969-66.710937 20.207031-116.273437 20.207031-28.960937-1.277344-57.621094-6.445312-85.207031-15.359375-.546875-.234375-1.121094-.40625-1.703125-.519531-9.859375-3.015625-19.355469-6.289063-28.160157-9.679688h140.671876c48.320312.066406 88.796874-36.5625 93.539062-84.652344 4.742188-48.089843-27.796875-91.921874-75.203125-101.296874 9.925781-16.769532 8.753906-40.300782 7.773437-60.195313-.332031-6.621094-.648437-12.867187-.511718-18.175781 0-.042969 0-.074219 0-.109375v-.144531c-.054688-30.121094 22.328125-55.574219 52.210937-59.367188 29.878907-3.792969 57.914063 15.253906 65.386719 44.433594 2.476562 9.785156 2.476562 20.03125 0 29.816406-1.46875 5.5625-3.710938 10.894531-6.664062 15.835938-1.511719 1.65625-2.925782 3.414062-4.308594 5.121093-.230469.289063-.488282.5625-.71875.851563-1.585938 2.03125-3.074219 4.101562-4.46875 6.214844-.050782.066406-.070313.152343-.121094.21875-.050781.070312-.179688.242187-.253906.359374-.078125.121094-.128906.101563-.179688.179688-13.292968 20.210938-18.472656 44.695312-14.507812 68.558594 2.617187 11.289062 6.558594 22.230468 11.742187 32.597656 2.074219 4.664062 4.199219 9.316406 6.050781 14.085938zm31.835938-150.375c.335938-2.832032.511719-5.679688.53125-8.53125-.019531-2.851563-.195312-5.703126-.53125-8.535157h34.664062c6.769532.003907 13.265626 2.675781 18.074219 7.441407 2.703125 2.722656 4.769531 6.011718 6.058594 9.625zm0 0"/>
    <path d="m375.515625 59.832031c0 4.710938-3.820313 8.53125-8.535156 8.53125-4.710938 0-8.53125-3.820312-8.53125-8.53125 0-4.714843 3.820312-8.535156 8.53125-8.535156 4.714843 0 8.535156 3.820313 8.535156 8.535156zm0 0"/>
</svg>
