<svg height="512pt" viewBox="-2 0 512 512.14452" width="512pt" xmlns="http://www.w3.org/2000/svg">
    <path d="m289.890625 491.929688c-4.875 0-8.824219-3.953126-8.824219-8.828126v-103.371093c0-4.875 3.949219-8.828125 8.824219-8.828125 4.878906 0 8.828125 3.953125 8.828125 8.828125v103.371093c0 4.875-3.949219 8.828126-8.828125 8.828126zm0 0"
          fill="#f29c1f"/>
    <path d="m130.996094 335.59375h-122.058594c-2.792969.011719-5.425781-1.300781-7.101562-3.53125-1.671876-2.234375-2.191407-5.128906-1.398438-7.804688 4.859375-14.335937 18.316406-23.980468 33.453125-23.976562h61.792969c2.015625 0 4.023437.175781 6.003906.53125"
          fill="#2c2f38"/>
    <path d="m153.507812 362.78125c-6.332031 5.246094-14.292968 8.117188-22.511718 8.121094h-61.792969c-19.5 0-35.3125-15.808594-35.3125-35.308594h132.414063"
          fill="#a5a5a4"/>
    <path d="m428.925781 88.421875h71.292969c2.796875.027344 5.445312-1.277344 7.121094-3.519531 1.675781-2.242188 2.179687-5.148438 1.363281-7.824219-1.753906-5.125-4.640625-9.789063-8.449219-13.640625-6.640625-6.597656-15.621094-10.3125-24.980468-10.328125h-46.347657"
          fill="#f0c419"/>
    <path d="m86.859375 335.59375c31.953125 19.15625 110.167969 44.136719 158.894531 44.136719 48.730469 0 92.867188-3 124.824219-22.15625 20.476563-12.269531 41.929687-31.074219 48.636719-54.820313 6.039062-23.480468 4.464844-48.269531-4.5-70.796875-7.398438-15.023437-13.425782-30.679687-18.007813-46.785156-3.707031-22.449219 1.210938-45.46875 13.769531-64.441406l.175782-.179688c2.921875-4.488281 6.230468-8.710937 9.886718-12.621093 3.742188-6.054688 6.566407-12.628907 8.386719-19.507813v-35.3125c-8.832031-34.503906-41.976562-57.027344-77.308593-52.542969-35.332032 4.488282-61.792969 34.582032-61.726563 70.199219-.679687 27.222656 9.042969 72.246094-17.652344 88.273437zm0 0"
          fill="#d1d4d1"/>
    <path d="m209.816406 184.898438c28.253906-28.253907 71.957032-34.007813 106.558594-14.03125 34.601562 19.976562 51.472656 60.703124 41.132812 99.296874-10.34375 38.59375-45.316406 65.429688-85.269531 65.429688h-182.730469c-3.515624-.003906-6.695312-2.085938-8.09375-5.308594-1.402343-3.222656-.757812-6.972656 1.640626-9.539062zm0 0"
          fill="#a5a5a4"/>
    <path d="m298.71875 476.832031c25.121094-1.351562 49.441406 9.066407 65.792969 28.1875 1.039062 1.339844 1.222656 3.152344.472656 4.671875-.753906 1.519532-2.308594 2.472656-4.003906 2.453125h-71.089844"
          fill="#f29c1f"/>
    <path d="m253.480469 476.832031c25.121093-1.351562 49.441406 9.066407 65.789062 28.1875 1.042969 1.339844 1.222657 3.152344.472657 4.671875-.753907 1.519532-2.308594 2.472656-4.003907 2.453125h-71.085937"
          fill="#f0c419"/>
    <path d="m245.753906 512.144531c-4.875 0-8.828125-3.953125-8.828125-8.828125v-123.585937c0-4.875 3.953125-8.828125 8.828125-8.828125s8.828125 3.953125 8.828125 8.828125v123.585937c0 4.875-3.953125 8.828125-8.828125 8.828125zm0 0"
          fill="#f0c419"/>
    <path d="m313.992188 169.546875c-9.914063 28.726563-26.386719 54.75-48.109376 76.003906-49.789062 49.789063-114.761718 67.796875-155.632812 46.082031l99.578125-106.726562c27.53125-27.535156 69.855469-33.773438 104.164063-15.359375zm0 0"
          fill="#2c2f38"/>
    <path d="m386.996094 53.109375c0 9.75-7.90625 17.65625-17.65625 17.65625s-17.65625-7.90625-17.65625-17.65625 7.90625-17.65625 17.65625-17.65625 17.65625 7.90625 17.65625 17.65625zm0 0"
          fill="#fff"/>
    <path d="m378.167969 53.109375c0 4.875-3.953125 8.828125-8.828125 8.828125s-8.828125-3.953125-8.828125-8.828125 3.953125-8.828125 8.828125-8.828125 8.828125 3.953125 8.828125 8.828125zm0 0"
          fill="#2c2f38"/>
    <path d="m369.339844 44.28125c-.019532 4.148438-2.921875 7.722656-6.972656 8.589844-4.054688.871094-8.167969-1.195313-9.886719-4.96875 1.753906-5.550782 6.101562-9.898438 11.652343-11.652344 3.164063 1.421875 5.199219 4.5625 5.207032 8.03125zm0 0"
          fill="#fff"/>
</svg>
