<svg xmlns="http://www.w3.org/2000/svg" width="16" height="16" viewBox="0 0 16 16">
  <g style="fill:none">
    <polygon points="7,5 7,1 3,5 " style="fill:#9aa7b0;fill-opacity:0.8" />
    <polygon points="3,6 3,8 13,8 13,1 8,1 8,6 " style="fill:#9aa7b0;fill-opacity:0.8" />
    <polygon points="16,9 1,9 1,16 16,16 " style="fill:#e05640;fill-opacity:0.7" />
    <path fill="#231F20" fill-opacity=".7" d="M0,2.501 C0,1 0.931,2.02832126e-16 2.256,0 C3.20239258,0 3.55,0.311 3.969,0.753 L3.42669678,1.42712402 C3.07669678,1.06812402 2.75,1 2.25,1 C1.418,1 1,1.73791504 1,2.487 C1,3.23608496 1.412,4 2.25,4 C2.787,4 3.05169678,3.89340869 3.42669678,3.50640869 L4,4.144 C3.544,4.669 3.19732666,5 2.225,5 C0.949,5 7.35277938e-17,4.002 0,2.501 Z" transform="translate(2 10)"/>
  </g>
  <text style="font-size:8px;fill:#231F20;font-family:Sans;opacity:0.7" x="6" y="15">
    <tspan x="6" y="15.2">++</tspan>
  </text>
</svg>
