<svg xmlns="http://www.w3.org/2000/svg" xmlns:xlink="http://www.w3.org/1999/xlink" viewBox="0 0 50.914 71.914"
     fill="#fff" fill-rule="evenodd" stroke="#000" stroke-linecap="round" stroke-linejoin="round">
    <use xlink:href="#A" x="3.957" y="3.957"/>
    <symbol id="A" overflow="visible">
        <path d="M22.278.005a25.64 25.64 0 0 0-6.822.791C4.662 3.479-7.415 17.384 5.77 33.393l7.874 9.536 2.216 2.715c1.583 1.773 3.933 1.741 5.73.261s2.319-3.925.831-5.73l-.902-1.092h.04l-1.282-1.583-6.094-7.384c-5.73-6.964-3.166-15.543 4.59-20.418 6.846-4.297 19.413-2.77 23.742 4.297C39.784 6.011 31.838.218 22.278.005zm1.583 16.809a4.51 4.51 0 0 0-2.976 1.092c-1.804 1.488-2.311 3.925-.831 5.73l.491.601 7.953 9.607c5.73 6.964 3.166 15.511-4.59 20.386-6.846 4.297-19.413 2.77-23.742-4.297 3.356 9.908 14.609 16.382 27.066 13.264 10.802-2.691 22.95-16.619 9.687-32.566l-9.244-11.087-1.052-1.322a3.72 3.72 0 0 0-2.754-1.353z"
              stroke="none" fill="#007cc2" fill-rule="nonzero"/>
    </symbol>
</svg>
