<svg xmlns="http://www.w3.org/2000/svg" xmlns:xlink="http://www.w3.org/1999/xlink" viewBox="0 0 66 65" fill="#fff" fill-rule="evenodd" stroke="#000" stroke-linecap="round" stroke-linejoin="round"><use xlink:href="#A" x=".5" y=".5"/><symbol id="A" overflow="visible"><g stroke="none" fill-rule="nonzero"><path d="M0 32C0 14.272 14.272 0 32 0s32 14.272 32 32-14.272 32-32 32S0 49.728 0 32z" fill="#214674"/><path d="M39.232 31.616c2.56.896 3.904 2.432 3.904 4.672 0 1.472-.512 2.56-1.6 3.456-1.088.832-2.56 1.344-4.544 1.344-1.856 0-3.584-.512-5.184-1.344-.192-.128-.32-.32-.32-.576.078-.44.206-.87.384-1.28l.512-1.024c.192-.256.448-.32.768-.192 1.408.64 2.56 1.024 3.648 1.024.512 0 .96-.064 1.28-.256s.448-.448.448-.704c0-.576-.448-1.024-1.344-1.28l-1.6-.576c-2.432-.896-3.648-2.304-3.648-4.352 0-1.472.512-2.624 1.536-3.456s2.368-1.6 4.096-1.6c.832 0 1.792.128 2.816.384.896.192 1.6.64 2.24 1.024.192.128.32.32.32.576 0 .448-.128.896-.32 1.408-.192.448-.384.832-.64 1.088-.192.192-.448.256-.64.128-1.472-.64-2.688-.96-3.712-.96-.384 0-.704.064-.896.256s-.32.384-.32.64c0 .448.384.832 1.088 1.088zm11.904 2.304c-.832.704-1.28 1.728-1.28 3.136v5.056c0 1.664-.512 2.944-1.664 3.84s-2.496 1.28-4.032 1.344h-.896v-2.112c0-.256.128-.448.384-.512.576-.192.832-.448 1.088-.704.576-.512 1.024-1.408 1.024-2.56v-4.096c0-1.408.128-2.496.64-3.264.384-.576 1.024-1.088 1.92-1.6.384-.192.384-.768 0-1.024-1.088-.64-1.792-1.408-2.24-2.368-.32-.704-.32-1.664-.32-2.88v-3.712c0-1.216-.384-2.112-.896-2.56a2.18 2.18 0 0 0-1.152-.64c-.256-.064-.384-.32-.384-.576v-1.344c0-.32.256-.576.576-.576h1.728c.96 0 1.792.512 2.496 1.088.768.64 1.344 1.408 1.664 2.496.192.576.192 1.152.192 1.728v4.288c0 1.536.448 2.688 1.216 3.392.384.384.896.704 1.728 1.024.256.064.384.32.384.512v1.088c0 .256-.128.448-.384.576-.896.256-1.408.576-1.792.96zM19.712 16.768h-.832c-.96 0-1.792.512-2.496 1.088-.768.64-1.472 1.408-1.664 2.496-.128.64-.064 1.152-.064 1.728v4.288c0 1.536-.576 2.624-1.344 3.392-.384.384-1.152.704-2.048 1.024-.256.128-.384.32-.384.576v1.088c0 .256.128.448.384.576.768.256 1.472.576 1.92.96.832.704 1.408 1.728 1.408 3.136v5.056c0 1.664.384 2.944 1.536 3.84s2.496 1.28 4.032 1.344h.448c.32 0 .576-.256.576-.576v-1.536c0-.256-.128-.448-.384-.512-.576-.192-.96-.448-1.216-.704-.576-.512-.896-1.408-.896-2.56v-4.096c0-1.408-.256-2.496-.768-3.264-.384-.576-1.024-1.088-1.92-1.6-.384-.192-.384-.768 0-1.024 1.088-.64 1.792-1.408 2.24-2.368.32-.704.448-1.664.448-2.88v-3.712c0-1.216.256-2.112.768-2.56.256-.256.704-.448 1.344-.64h.576c.32 0 .576-.256.576-.576v-1.344c0-.32-.256-.576-.576-.576zM30.08 37.184h-.768c-.832 0-1.152-.448-1.152-1.344V19.264c0-1.024-.32-1.728-.64-2.112-.384-.384-1.024-.384-1.92-.384h-1.408c-.32 0-.576.256-.576.576v19.328c0 1.408.32 2.368.896 3.072.576.64 1.472.96 2.816.96.832 0 1.728-.064 2.688-.192.256-.064.448-.256.512-.512v-.768c-.128-.768-.256-1.408-.448-2.048z" fill="#f6f6f6"/></g></symbol></svg>