<svg version="1.1" xmlns="http://www.w3.org/2000/svg" xmlns:xlink="http://www.w3.org/1999/xlink" x="0px" y="0px" viewBox="0 0 1000 1000" enable-background="new 0 0 1000 1000" xml:space="preserve">
    <g fill="#6E6E6E" fill-opacity=".7">
        <path d="M726.3,18.1c-29.7-2.7-59.4-5.5-89.1-8.1C465.5,116.8,428,212.1,305.1,358.2c-50-85.3,73.1-231.9-64.8-299.7c-52.1-17.8-123,26.3-186.2,40.5c-8.1,16.1-16.3,32.4-24.3,48.6c20,21.7,34.6,27.2,72.9,32.4C126.7,300.6,50,646.4,321.4,568.9c53.4,93.6,40.7,338.7,0,421.1H370c24.3-126.9,48.6-253.8,72.9-380.6c18.9-2.7,37.9-5.5,56.7-8.1c2.7,5.3,5.5,10.8,8.1,16.3c-10.8,56.7-21.6,113.4-32.4,170.1c37.7,40.5,75.6,81,113.4,121.5c-17.1,33-19.3,42.4-56.7,56.7c-2.7,8.1-5.5,16.3-8.1,24.3c94.3-1.2,85.8-10.5,153.9,0h8.1c11.9-57.2-16.1-65-32.4-113.4C704.9,785.1,731.9,666,767,544.5c5.3-2.7,10.8-5.5,16.3-8.1c72.3,79.8,116.3,305.9,64.8,429.3v24.3h56.7c-19.6-164.5-20-356.1,8.1-542.6h8.1c41.4,48.1,18,126.1,0,178.2v8.1c5.3,2.7,10.8,5.5,16.3,8.1C1053.1,472.6,834.1,119.8,726.3,18.1z M637.2,852.3c-8.1,5.3-16.3,10.8-24.3,16.3c-34.5-19.5-50.7-32.1-64.8-72.9c-6.7-43.3,66.2-149.2,89.1-210.6C700.6,640.9,658.7,792.5,637.2,852.3z"/>
    </g>
</svg>
